<?xml version="1.0" encoding="UTF-8" standalone="no"?>
<svg version="1.1" xmlns="http://www.w3.org/2000/svg" xmlns:xlink="http://www.w3.org/1999/xlink"
     viewBox="0 0 450 450">
  <style type="text/css" >
    <![CDATA[ #pieces { font-family: Arial Black; font-size: 64px; fill: #000000; } ]]>
  </style>
  <defs>
    <rect id="piece" width="85" height="85" style="fill: #a03800; stroke: #000000; stroke-width: 4" />
  </defs>
  <rect x="2" y="2" width="446" height="446" style="fill: #d99a34; stroke: #000000; stroke-width: 4" />
  <g transform="translate(35,35)">
    <rect id="board" width="370" height="370" style="fill: #a06e1e; stroke: #ad6927; stroke-width: 4" />
    <g id="pieces" transform="translate(5,5)">
      <!-- row 1-->
      <g transform="translate(0,1)"><use xlink:href="#piece" /><text x="17" y="62">V</text></g>
      <g transform="translate(92,2)"><use xlink:href="#piece" /><text x="17" y="62">O</text></g>
      <g transform="translate(185,3)"><use xlink:href="#piece" /><text x="17" y="62">A</text></g>
      <g transform="translate(275,1)"><use xlink:href="#piece" /><text x="17" y="62">V</text></g>
      <!-- row 2 -->
      <g transform="translate(0,93)"><use xlink:href="#piece" /><text x="17" y="62">A</text></g>
      <g transform="translate(92,92)"><use xlink:href="#piece" /><text x="17" y="62">C</text></g>
      <g transform="translate(184,94)"><use xlink:href="#piece" /><text x="17" y="62">V</text></g>
      <g transform="translate(275,94)"><use xlink:href="#piece" /><text x="17" y="62">A</text></g>
      <!-- row 3 -->
      <g transform="translate(0,183)"><use xlink:href="#piece" /><text x="17" y="62">A</text></g>
      <g transform="translate(94,183)"><use xlink:href="#piece" /><text x="17" y="62">P</text></g>
      <g transform="translate(186,184)"><use xlink:href="#piece" /><text x="12" y="62">M</text></g>
      <g transform="translate(275,184)"><use xlink:href="#piece" /><text x="17" y="62">E</text></g>
      <!-- row 4 -->
      <g transform="translate(0,275)"><use xlink:href="#piece" /><text x="17" y="62">V</text></g>
      <g transform="translate(94,274)"><use xlink:href="#piece" /><text x="30" y="62">I</text></g>
      <g transform="translate(185,275)"><use xlink:href="#piece" /><text x="17" y="62">E</text></g>
      <g transform="translate(275,274)"><use xlink:href="#piece" /><text x="20" y="62">S</text></g>
    </g>
  </g>
</svg>
